<svg width="492.93996582031247px" height="129.1824951171875px" xmlns="http://www.w3.org/2000/svg" viewBox="3.530017089843767 10.40875244140625 492.93996582031247 129.1824951171875" style="background: none;" preserveAspectRatio="xMidYMid"><defs><filter id="editing-hole" x="-100%" y="-100%" width="300%" height="300%"><feFlood flood-color="#222222" result="black"></feFlood><feMorphology operator="dilate" radius="2" in="SourceGraphic" result="erode"></feMorphology><feGaussianBlur in="erode" stdDeviation="4" result="blur"></feGaussianBlur><feOffset in="blur" dx="2" dy="2" result="offset"></feOffset><feComposite operator="atop" in="offset" in2="black" result="merge"></feComposite><feComposite operator="in" in="merge" in2="SourceGraphic" result="inner-shadow"></feComposite></filter></defs><g filter="url(#editing-hole)"><g transform="translate(76.85938358306885, 100.68875122070312)"><path d="M22.14-20.80L22.14-20.80L23.74-20.54L23.74-20.54Q26.82-20.54 32.86-23.26L32.86-23.26L32.86-23.26Q38.91-25.98 43.97-30.02L43.97-30.02L43.97-30.02Q49.02-34.05 49.02-37.12L49.02-37.12L49.02-37.12Q49.02-39.10 47.07-39.87L47.07-39.87L47.07-39.87Q45.12-40.64 42.82-40.64L42.82-40.64L42.82-40.64Q35.33-40.64 26.69-36.35L26.69-36.35L26.69-36.35Q18.05-32.06 11.78-26.24L11.78-26.24L11.78-26.24Q3.33-18.37 3.33-11.26L3.33-11.26L3.33-11.26Q3.33-8.19 4.86-5.89L4.86-5.89L4.86-5.89Q6.40-3.58 8.96-2.30L8.96-2.30L8.96-2.30Q13.76 0.06 19.71 0.06L19.71 0.06L19.71 0.06Q22.40 0.06 26.30-0.51L26.30-0.51L26.30-0.51Q33.09-1.73 37.92-3.71L37.92-3.71L37.92-3.71Q42.75-5.70 47.62-9.66L47.62-9.66L47.62-9.66Q47.87-9.79 47.94-9.79L47.94-9.79L47.94-9.79Q48.26-9.79 48.26-9.50L48.26-9.50L48.26-9.50Q48.26-9.22 48-8.83L48-8.83L48-8.83Q43.20-3.65 34.62-0.35L34.62-0.35L34.62-0.35Q26.05 2.94 18.56 2.94L18.56 2.94L18.56 2.94Q8.96 2.94 4.16-2.69L4.16-2.69L4.16-2.69Q1.54-5.82 1.54-10.24L1.54-10.24L1.54-10.24Q1.54-18.82 10.82-27.20L10.82-27.20L10.82-27.20Q17.79-33.47 27.58-38.02L27.58-38.02L27.58-38.02Q37.38-42.56 45.82-42.56L45.82-42.56L45.82-42.56Q51.01-42.56 53.89-40.06L53.89-40.06L53.89-40.06Q55.55-38.53 55.55-36.29L55.55-36.29L55.55-36.29Q55.55-33.15 52.38-29.98L52.38-29.98L52.38-29.98Q49.22-26.82 44.77-24.58L44.77-24.58L44.77-24.58Q40.32-22.34 35.87-20.83L35.87-20.83L35.87-20.83Q31.42-19.33 29.66-19.17L29.66-19.17L29.66-19.17Q27.90-19.01 26.98-19.01L26.98-19.01L26.98-19.01Q26.05-19.01 25.09-19.07L25.09-19.07L25.09-19.07Q21.76-19.39 21.76-20.48L21.76-20.48L21.76-20.48Q21.76-20.80 22.14-20.80ZM63.62-12.80L63.62-12.80L63.62-12.80Q60.80-9.54 59.04-6.82L59.04-6.82L59.04-6.82Q57.28-4.10 57.28-2.98L57.28-2.98L57.28-2.98Q57.28-1.86 58.59-1.86L58.59-1.86L58.59-1.86Q59.90-1.86 63.97-4.48L63.97-4.48L63.97-4.48Q68.03-7.10 71.49-10.37L71.49-10.37L71.49-10.37Q71.81-10.69 72.06-10.62L72.06-10.62L72.06-10.62Q72.32-10.56 72.32-10.30L72.32-10.30L72.32-10.30Q72.32-10.05 72.06-9.73L72.06-9.73L72.06-9.73Q63.81-2.18 59.46-0.26L59.46-0.26L59.46-0.26Q57.54 0.51 56.70 0.51L56.70 0.51L56.70 0.51Q53.63 0.51 52.51-0.51L52.51-0.51L52.51-0.51Q51.39-1.54 51.39-2.75L51.39-2.75L51.39-2.75Q51.39-5.18 52.35-6.46L52.35-6.46L52.35-6.46Q55.49-10.88 57.34-13.95L57.34-13.95L57.34-13.95Q57.92-14.85 57.12-15.20L57.12-15.20L57.12-15.20Q56.32-15.55 55.14-15.55L55.14-15.55L55.14-15.55Q53.95-15.55 53.89-15.62L53.89-15.62L53.89-15.62Q49.60-9.86 45.38-6.53L45.38-6.53L45.38-6.53Q44.86-6.08 44.80-6.53L44.80-6.53L44.80-6.53Q44.80-7.04 45.50-7.74L45.50-7.74L45.50-7.74Q49.98-11.58 52.86-15.87L52.86-15.87L52.86-15.87Q52.29-16.26 52.29-16.93L52.29-16.93L52.29-16.93Q52.29-17.60 52.38-18.56L52.38-18.56L52.38-18.56Q52.48-19.52 53.38-21.12L53.38-21.12L53.38-21.12Q54.91-23.81 56.58-23.81L56.58-23.81L56.58-23.81Q57.98-23.81 57.98-22.27L57.98-22.27L57.98-22.27Q57.98-20.16 56-17.66L56-17.66L56-17.66Q55.04-16.51 54.21-16L54.21-16L54.21-16Q56.58-16.77 61.12-16.77L61.12-16.77L61.12-16.77Q63.36-16.77 64.32-15.10L64.32-15.10L64.32-15.10Q64.45-14.85 64.45-14.34L64.45-14.34L64.45-14.34Q64.45-13.82 63.62-12.80ZM82.05-19.52L82.05-19.52L82.05-19.52Q81.34-20.10 81.47-21.18L81.47-21.18L81.47-21.18Q81.60-22.27 82.62-23.49L82.62-23.49L82.62-23.49Q83.65-24.70 85.38-24.70L85.38-24.70L85.38-24.70Q85.89-24.70 86.46-24.22L86.46-24.22L86.46-24.22Q87.04-23.74 86.91-22.62L86.91-22.62L86.91-22.62Q86.78-21.50 85.89-20.51L85.89-20.51L85.89-20.51Q84.99-19.52 83.87-19.23L83.87-19.23L83.87-19.23Q82.75-18.94 82.05-19.52ZM81.22-16.13L81.22-16.13L81.22-16.13Q78.59-13.44 76.83-9.31L76.83-9.31L76.83-9.31Q75.07-5.18 75.07-3.52L75.07-3.52L75.07-3.52Q75.07-1.86 76.38-1.86L76.38-1.86L76.38-1.86Q77.70-1.86 80.74-3.78L80.74-3.78L80.74-3.78Q83.78-5.70 87.68-9.22L87.68-9.22L87.68-9.22Q88.51-9.98 88.51-9.02L88.51-9.02L88.51-9.02Q88.51-8.90 88.38-8.77L88.38-8.77L88.38-8.77Q85.31-6.08 83.20-4.35L83.20-4.35L83.20-4.35Q81.09-2.62 78.18-1.06L78.18-1.06L78.18-1.06Q75.26 0.51 73.41 0.51L73.41 0.51L73.41 0.51Q71.10 0.51 69.98-0.51L69.98-0.51L69.98-0.51Q68.86-1.54 68.86-2.75L68.86-2.75L68.86-2.75Q68.86-5.06 69.70-6.40L69.70-6.40L69.70-6.40Q70.53-7.74 72.51-10.11L72.51-10.11L72.51-10.11Q71.81-9.54 70.30-8.19L70.30-8.19L70.30-8.19Q68.80-6.85 68.22-6.40L68.22-6.40L68.22-6.40Q67.65-5.95 67.65-6.66L67.65-6.66L67.65-6.66Q67.65-7.10 68.67-7.94L68.67-7.94L68.67-7.94Q69.70-8.77 73.12-12.16L73.12-12.16L73.12-12.16Q76.54-15.55 77.79-16.19L77.79-16.19L77.79-16.19Q79.04-16.83 79.84-16.83L79.84-16.83L79.84-16.83Q80.64-16.83 81.02-16.61L81.02-16.61L81.02-16.61Q81.41-16.38 81.22-16.13ZM97.98-21.95L97.98-21.95L97.98-21.95Q99.39-24.06 100.26-25.31L100.26-25.31L100.26-25.31Q101.12-26.56 101.63-27.14L101.63-27.14L101.63-27.14Q102.14-27.71 103.94-28.13L103.94-28.13L103.94-28.13Q105.73-28.54 107.39-28.54L107.39-28.54L107.39-28.54Q109.06-28.54 109.06-28.19L109.06-28.19L109.06-28.19Q109.06-27.84 106.30-25.22L106.30-25.22L106.30-25.22Q103.55-22.59 99.90-18.24L99.90-18.24L99.90-18.24Q104.26-17.54 105.60-15.49L105.60-15.49L105.60-15.49Q106.11-14.59 105.76-14.34L105.76-14.34L105.76-14.34Q105.41-14.08 104.96-14.53L104.96-14.53L104.96-14.53Q103.62-15.87 100.67-15.87L100.67-15.87L100.67-15.87Q99.39-15.87 97.79-15.62L97.79-15.62L97.79-15.62Q92.61-8.96 91.26-4.74L91.26-4.74L91.26-4.74Q90.82-3.52 90.82-2.69L90.82-2.69L90.82-2.69Q90.82-0.45 92.67-0.45L92.67-0.45L92.67-0.45Q94.66-0.45 98.24-3.20L98.24-3.20L98.24-3.20Q102.91-6.72 106.37-10.18L106.37-10.18L106.37-10.18Q107.01-10.88 107.20-10.50L107.20-10.50L107.20-10.50Q107.39-10.11 106.88-9.66L106.88-9.66L106.88-9.66Q101.38-3.90 97.63-1.18L97.63-1.18L97.63-1.18Q93.89 1.54 90.75 1.54L90.75 1.54L90.75 1.54Q86.46 1.54 86.46-3.01L86.46-3.01L86.46-3.01Q86.46-5.18 87.68-8.19L87.68-8.19L86.53-7.10L86.53-7.10Q86.02-6.59 85.79-6.82L85.79-6.82L85.79-6.82Q85.57-7.04 85.57-7.23L85.57-7.23L85.57-7.23Q85.57-7.42 86.08-7.87L86.08-7.87L86.08-7.87Q90.75-11.97 92.48-14.08L92.48-14.08L92.48-14.08Q91.26-13.63 90.85-14.02L90.85-14.02L90.85-14.02Q90.43-14.40 90.27-15.04L90.27-15.04L90.27-15.04Q90.11-15.68 90.91-16.61L90.91-16.61L90.91-16.61Q91.71-17.54 93.28-17.95L93.28-17.95L93.28-17.95Q94.85-18.37 95.62-18.43L95.62-18.43L95.62-18.43Q96.58-19.84 97.98-21.95ZM100.54-3.52L100.54-3.52L100.54-3.52Q100.48-3.58 100.48-3.71L100.48-3.71L100.48-3.71Q100.48-3.84 100.70-3.84L100.70-3.84L100.70-3.84Q100.93-3.84 100.99-3.58L100.99-3.58L100.99-3.58Q102.14-1.02 104.77-1.02L104.77-1.02L104.77-1.02Q108.03-1.02 110.46-4.22L110.46-4.22L110.46-4.22Q112.26-6.59 113.63-9.18L113.63-9.18L113.63-9.18Q115.01-11.78 115.94-13.31L115.94-13.31L115.94-13.31Q116.86-14.85 118.82-16.77L118.82-16.77L118.82-16.77Q120.77-18.69 122.37-19.14L122.37-19.14L122.37-19.14Q121.98-19.33 121.09-19.33L121.09-19.33L121.09-19.33Q120.19-19.33 117.73-18.02L117.73-18.02L117.73-18.02Q115.26-16.70 112.83-14.69L112.83-14.69L112.83-14.69Q110.40-12.67 107.58-10.11L107.58-10.11L107.58-10.11Q104.77-7.55 104.19-7.10L104.19-7.10L104.19-7.10Q103.62-6.66 103.49-7.10L103.49-7.10L103.49-7.10Q103.36-7.55 103.81-7.94L103.81-7.94L103.81-7.94Q105.47-9.34 108.61-12.32L108.61-12.32L108.61-12.32Q111.74-15.30 113.38-16.67L113.38-16.67L113.38-16.67Q115.01-18.05 117.06-19.04L117.06-19.04L117.06-19.04Q119.10-20.03 120.13-20.03L120.13-20.03L120.13-20.03Q122.69-20.03 123.26-19.14L123.26-19.14L123.26-19.14Q121.60-18.43 120.54-15.42L120.54-15.42L120.54-15.42Q119.49-12.42 118.18-8.45L118.18-8.45L118.18-8.45Q116.86-4.48 114.88-2.24L114.88-2.24L114.88-2.24Q116.54-2.88 120.03-5.22L120.03-5.22L120.03-5.22Q123.52-7.55 126.21-10.30L126.21-10.30L126.21-10.30Q126.78-10.82 127.04-10.43L127.04-10.43L127.04-10.43Q127.04-10.30 127.04-10.14L127.04-10.14L127.04-10.14Q127.04-9.98 125.82-8.77L125.82-8.77L125.82-8.77Q124.61-7.55 122.85-6.05L122.85-6.05L122.85-6.05Q121.09-4.54 118.46-2.69L118.46-2.69L118.46-2.69Q113.02 1.15 107.55 1.15L107.55 1.15L107.55 1.15Q102.08 1.15 100.54-3.52ZM159.62-0.58L159.62-0.58L159.62-0.58Q153.73 0.83 150.08 0.19L150.08 0.19L150.08 0.19Q143.49-0.96 141.70-4.42L141.70-4.42L141.70-4.42Q141.06-5.63 141.06-6.56L141.06-6.56L141.06-6.56Q141.06-7.49 141.18-8.06L141.18-8.06L141.18-8.06Q141.57-10.05 143.65-12.29L143.65-12.29L143.65-12.29Q145.73-14.53 149.44-16.58L149.44-16.58L152.77-18.43L152.77-18.43Q153.92-29.06 166.14-36.61L166.14-36.61L166.14-36.61Q170.94-39.62 174.21-39.62L174.21-39.62L174.21-39.62Q175.30-39.62 176.19-39.30L176.19-39.30L176.19-39.30Q178.30-38.53 178.30-36.54L178.30-36.54L178.30-36.54Q178.30-33.09 173.63-29.38L173.63-29.38L173.63-29.38Q171.07-27.26 168.06-25.47L168.06-25.47L156.93-18.82L156.93-18.82Q156.93-18.37 156.93-16.93L156.93-16.93L156.93-16.93Q156.93-15.49 157.50-13.12L157.50-13.12L157.50-13.12Q162.37-15.87 168.13-16.83L168.13-16.83L168.13-16.83Q170.94-17.34 173.06-17.34L173.06-17.34L173.06-17.34Q178.30-17.34 179.01-14.02L179.01-14.02L179.01-14.02Q179.07-13.57 179.07-13.18L179.07-13.18L179.07-13.18Q179.07-11.01 176.70-8.64L176.70-8.64L176.70-8.64Q172.54-4.48 162.75-1.47L162.75-1.47L162.75-1.47Q166.66 3.84 171.33 5.76L171.33 5.76L171.33 5.76Q174.46 7.10 176.19 7.10L176.19 7.10L176.19 7.10Q177.92 7.10 178.59 6.37L178.59 6.37L178.59 6.37Q179.26 5.63 179.26 4.83L179.26 4.83L179.26 4.83Q179.26 4.03 178.37 2.94L178.37 2.94L178.37 2.94Q176.45 0.45 172.74 0.45L172.74 0.45L172.74 0.45Q172.35 0.45 171.55 0.54L171.55 0.54L171.55 0.54Q170.75 0.64 170.75 0.45L170.75 0.45L170.75 0.45Q170.56-0.06 171.65-0.26L171.65-0.26L171.65-0.26Q173.38-0.51 174.85-0.51L174.85-0.51L174.85-0.51Q178.94-0.51 180.67 1.73L180.67 1.73L180.67 1.73Q181.57 2.75 181.57 3.81L181.57 3.81L181.57 3.81Q181.57 4.86 180.80 5.95L180.80 5.95L180.80 5.95Q179.33 8.13 176.06 8.13L176.06 8.13L176.06 8.13Q173.50 8.13 170.69 6.91L170.69 6.91L170.69 6.91Q164.10 4.10 159.62-0.58ZM177.54-12.80L177.54-12.80L177.54-12.80Q177.54-14.59 173.82-14.59L173.82-14.59L173.82-14.59Q167.55-14.59 158.08-10.75L158.08-10.75L158.08-10.75Q159.42-6.21 162.11-2.30L162.11-2.30L162.11-2.30Q169.92-4.74 174.85-9.02L174.85-9.02L174.85-9.02Q177.54-11.33 177.54-12.80ZM146.94-1.54L146.94-1.54L146.94-1.54Q148.99-0.70 151.42-0.70L151.42-0.70L151.42-0.70Q155.39-0.70 158.78-1.41L158.78-1.41L158.78-1.41Q155.52-5.18 154.11-8.90L154.11-8.90L154.11-8.90Q151.94-7.62 151.49-7.14L151.49-7.14L151.49-7.14Q151.04-6.66 150.98-6.69L150.98-6.69L150.98-6.69Q150.91-6.72 150.98-7.10L150.98-7.10L150.98-7.10Q151.17-8.51 153.41-10.37L153.41-10.37L153.54-10.43L153.54-10.43Q152.64-13.44 152.64-16.19L152.64-16.19L150.78-15.04L150.78-15.04Q147.26-12.61 145.44-9.98L145.44-9.98L145.44-9.98Q143.62-7.36 143.62-5.06L143.62-5.06L143.62-5.06Q143.62-2.75 146.94-1.54ZM169.76-28.99L169.76-28.99L169.76-28.99Q172.67-31.55 172.67-33.63L172.67-33.63L172.67-33.63Q172.67-35.71 170.50-35.71L170.50-35.71L170.50-35.71Q168-35.71 164.54-33.34L164.54-33.34L164.54-33.34Q157.95-28.86 157.18-20.80L157.18-20.80L157.18-20.80Q158.34-21.50 161.09-23.04L161.09-23.04L161.09-23.04Q166.85-26.43 169.76-28.99ZM221.12-20.80L221.12-20.80L222.72-20.54L222.72-20.54Q225.79-20.54 231.84-23.26L231.84-23.26L231.84-23.26Q237.89-25.98 242.94-30.02L242.94-30.02L242.94-30.02Q248.00-34.05 248.00-37.12L248.00-37.12L248.00-37.12Q248.00-39.10 246.05-39.87L246.05-39.87L246.05-39.87Q244.10-40.64 241.79-40.64L241.79-40.64L241.79-40.64Q234.30-40.64 225.66-36.35L225.66-36.35L225.66-36.35Q217.02-32.06 210.75-26.24L210.75-26.24L210.75-26.24Q202.30-18.37 202.30-11.26L202.30-11.26L202.30-11.26Q202.30-8.19 203.84-5.89L203.84-5.89L203.84-5.89Q205.38-3.58 207.94-2.30L207.94-2.30L207.94-2.30Q212.74 0.06 218.69 0.06L218.69 0.06L218.69 0.06Q221.38 0.06 225.28-0.51L225.28-0.51L225.28-0.51Q232.06-1.73 236.90-3.71L236.90-3.71L236.90-3.71Q241.73-5.70 246.59-9.66L246.59-9.66L246.59-9.66Q246.85-9.79 246.91-9.79L246.91-9.79L246.91-9.79Q247.23-9.79 247.23-9.50L247.23-9.50L247.23-9.50Q247.23-9.22 246.98-8.83L246.98-8.83L246.98-8.83Q242.18-3.65 233.60-0.35L233.60-0.35L233.60-0.35Q225.02 2.94 217.54 2.94L217.54 2.94L217.54 2.94Q207.94 2.94 203.14-2.69L203.14-2.69L203.14-2.69Q200.51-5.82 200.51-10.24L200.51-10.24L200.51-10.24Q200.51-18.82 209.79-27.20L209.79-27.20L209.79-27.20Q216.77-33.47 226.56-38.02L226.56-38.02L226.56-38.02Q236.35-42.56 244.80-42.56L244.80-42.56L244.80-42.56Q249.98-42.56 252.86-40.06L252.86-40.06L252.86-40.06Q254.53-38.53 254.53-36.29L254.53-36.29L254.53-36.29Q254.53-33.15 251.36-29.98L251.36-29.98L251.36-29.98Q248.19-26.82 243.74-24.58L243.74-24.58L243.74-24.58Q239.30-22.34 234.85-20.83L234.85-20.83L234.85-20.83Q230.40-19.33 228.64-19.17L228.64-19.17L228.64-19.17Q226.88-19.01 225.95-19.01L225.95-19.01L225.95-19.01Q225.02-19.01 224.06-19.07L224.06-19.07L224.06-19.07Q220.74-19.39 220.74-20.48L220.74-20.48L220.74-20.48Q220.74-20.80 221.12-20.80ZM256.26-1.09L256.26-1.09L256.26-1.09Q251.97 1.09 248.77 1.09L248.77 1.09L248.77 1.09Q246.08 1.09 245.12-0.70L245.12-0.70L245.12-0.70Q244.61-1.60 244.61-2.75L244.61-2.75L244.61-2.75Q244.61-5.38 245.82-7.87L245.82-7.87L245.82-7.87Q244.99-7.04 244.22-6.53L244.22-6.53L244.22-6.53Q243.58-5.95 243.58-6.66L243.58-6.66L243.58-6.66Q243.58-7.10 244.70-8.06L244.70-8.06L244.70-8.06Q245.82-9.02 248.13-11.30L248.13-11.30L248.13-11.30Q250.43-13.57 251.78-14.72L251.78-14.72L251.78-14.72Q255.68-17.98 260.03-17.98L260.03-17.98L260.03-17.98Q261.63-17.98 263.30-17.15L263.30-17.15L263.30-17.15Q265.73-16 265.73-12.93L265.73-12.93L265.73-12.93Q265.73-9.22 262.02-5.31L262.02-5.31L262.02-5.31Q260.54-3.65 257.92-1.98L257.92-1.98L257.92-1.98Q263.17-2.82 269.06-8.32L269.06-8.32L269.06-8.32Q269.38-8.58 269.63-8.54L269.63-8.54L269.63-8.54Q269.89-8.51 269.89-8.26L269.89-8.26L269.89-8.26Q269.89-8 269.63-7.74L269.63-7.74L269.63-7.74Q262.59-1.09 256.51-1.09L256.51-1.09L256.51-1.09Q256.38-1.09 256.26-1.09ZM262.46-7.81L262.46-7.81L262.46-7.81Q264.06-10.24 264.06-11.94L264.06-11.94L264.06-11.94Q264.06-13.63 262.59-14.53L262.59-14.53L262.59-14.53Q261.76-15.23 260.67-15.23L260.67-15.23L260.67-15.23Q256.77-15.23 253.47-12.16L253.47-12.16L253.47-12.16Q250.18-9.09 249.09-5.63L249.09-5.63L249.09-5.63Q248.64-4.42 248.64-3.10L248.64-3.10L248.64-3.10Q248.64-1.79 249.63-1.25L249.63-1.25L249.63-1.25Q250.62-0.70 251.84-0.70L251.84-0.70L251.84-0.70Q253.06-0.70 255.36-1.92L255.36-1.92L255.36-1.92Q255.23-1.92 254.98-2.05L254.98-2.05L254.98-2.05Q254.21-2.43 254.21-3.07L254.21-3.07L254.21-3.07Q254.21-5.31 256.70-7.62L256.70-7.62L256.70-7.62Q258.50-9.22 260.35-9.22L260.35-9.22L260.35-9.22Q262.21-9.22 262.46-7.81ZM298.88-26.24L298.88-26.24L298.88-26.24Q298.88-25.98 298.66-25.98L298.66-25.98L298.66-25.98Q298.43-25.98 298.37-26.30L298.37-26.30L298.37-26.30Q297.98-27.78 296.90-28.58L296.90-28.58L296.90-28.58Q295.81-29.38 295.01-29.41L295.01-29.41L295.01-29.41Q294.21-29.44 293.57-29.44L293.57-29.44L293.57-29.44Q291.26-29.44 289.28-28.16L289.28-28.16L289.28-28.16Q285.50-25.73 280.51-18.94L280.51-18.94L280.51-18.94Q284.03-18.62 285.25-17.66L285.25-17.66L285.25-17.66Q287.62-15.87 287.17-15.04L287.17-15.04L287.17-15.04Q287.04-14.72 286.02-15.33L286.02-15.33L286.02-15.33Q284.99-15.94 282.88-15.94L282.88-15.94L282.88-15.94Q280.77-15.94 277.95-15.17L277.95-15.17L277.95-15.17Q273.54-8.70 271.42-1.92L271.42-1.92L271.42-1.92Q270.53 1.02 270.53 2.94L270.53 2.94L270.53 2.94Q270.53 4.86 271.36 5.82L271.36 5.82L271.36 5.82Q271.62 6.08 271.42 6.14L271.42 6.14L271.42 6.14Q271.23 6.21 271.17 6.21L271.17 6.21L271.17 6.21Q271.10 6.21 271.04 6.14L271.04 6.14L271.04 6.14Q268.67 4.22 268.67 0.06L268.67 0.06L268.67 0.06Q268.67-4.10 272.58-13.12L272.58-13.12L272.58-13.12Q272.26-12.99 272.10-13.12L272.10-13.12L272.10-13.12Q271.94-13.25 271.71-13.70L271.71-13.70L271.71-13.70Q271.49-14.14 271.36-14.82L271.36-14.82L271.36-14.82Q271.23-15.49 271.39-16.16L271.39-16.16L271.39-16.16Q271.55-16.83 272.32-17.54L272.32-17.54L272.32-17.54Q273.22-18.30 275.33-18.75L275.33-18.75L275.33-18.75Q280.06-27.52 284.48-30.53L284.48-30.53L284.48-30.53Q287.42-32.51 290.56-32.51L290.56-32.51L290.56-32.51Q293.70-32.51 295.94-30.98L295.94-30.98L295.94-30.98Q298.88-28.93 298.88-26.24ZM314.94-26.24L314.94-26.24L314.94-26.24Q314.94-25.98 314.72-25.98L314.72-25.98L314.72-25.98Q314.50-25.98 314.43-26.30L314.43-26.30L314.43-26.30Q314.05-27.78 312.96-28.58L312.96-28.58L312.96-28.58Q311.87-29.38 311.07-29.41L311.07-29.41L311.07-29.41Q310.27-29.44 309.63-29.44L309.63-29.44L309.63-29.44Q307.33-29.44 305.34-28.16L305.34-28.16L305.34-28.16Q301.57-25.73 296.58-18.94L296.58-18.94L296.58-18.94Q300.10-18.62 301.31-17.66L301.31-17.66L301.31-17.66Q303.68-15.87 303.23-15.04L303.23-15.04L303.23-15.04Q303.10-14.72 302.08-15.33L302.08-15.33L302.08-15.33Q301.06-15.94 298.94-15.94L298.94-15.94L298.94-15.94Q296.83-15.94 294.02-15.17L294.02-15.17L294.02-15.17Q289.60-8.70 287.49-1.92L287.49-1.92L287.49-1.92Q286.59 1.02 286.59 2.94L286.59 2.94L286.59 2.94Q286.59 4.86 287.42 5.82L287.42 5.82L287.42 5.82Q287.68 6.08 287.49 6.14L287.49 6.14L287.49 6.14Q287.30 6.21 287.23 6.21L287.23 6.21L287.23 6.21Q287.17 6.21 287.10 6.14L287.10 6.14L287.10 6.14Q284.74 4.22 284.74 0.06L284.74 0.06L284.74 0.06Q284.74-4.10 288.64-13.12L288.64-13.12L288.64-13.12Q288.32-12.99 288.16-13.12L288.16-13.12L288.16-13.12Q288-13.25 287.78-13.70L287.78-13.70L287.78-13.70Q287.55-14.14 287.42-14.82L287.42-14.82L287.42-14.82Q287.30-15.49 287.46-16.16L287.46-16.16L287.46-16.16Q287.62-16.83 288.38-17.54L288.38-17.54L288.38-17.54Q289.28-18.30 291.39-18.75L291.39-18.75L291.39-18.75Q296.13-27.52 300.54-30.53L300.54-30.53L300.54-30.53Q303.49-32.51 306.62-32.51L306.62-32.51L306.62-32.51Q309.76-32.51 312-30.98L312-30.98L312-30.98Q314.94-28.93 314.94-26.24ZM315.90-9.98L315.90-9.98L315.90-9.98Q319.30-11.84 319.30-13.76L319.30-13.76L319.30-13.76Q319.30-15.68 316.99-15.68L316.99-15.68L316.99-15.68Q315.90-15.68 314.69-15.10L314.69-15.10L314.69-15.10Q312-13.89 309.50-10.88L309.50-10.88L309.50-10.88Q306.43-7.17 306.43-3.97L306.43-3.97L306.43-3.97Q306.43-2.75 307.10-1.70L307.10-1.70L307.10-1.70Q307.78-0.64 309.50-0.64L309.50-0.64L309.50-0.64Q312.51-0.64 317.12-3.81L317.12-3.81L317.12-3.81Q321.73-6.98 325.06-10.18L325.06-10.18L325.06-10.18Q325.82-10.94 325.82-10.24L325.82-10.24L325.82-10.24Q325.82-9.79 325.44-9.47L325.44-9.47L325.44-9.47Q323.07-7.30 322.27-6.56L322.27-6.56L322.27-6.56Q321.47-5.82 319.10-3.94L319.10-3.94L319.10-3.94Q316.74-2.05 315.26-1.28L315.26-1.28L315.26-1.28Q310.72 1.09 307.55 1.09L307.55 1.09L307.55 1.09Q304.38 1.09 302.56-0.35L302.56-0.35L302.56-0.35Q300.74-1.79 300.74-4.35L300.74-4.35L300.74-4.35Q300.74-9.79 305.60-13.73L305.60-13.73L305.60-13.73Q310.46-17.66 315.78-17.66L315.78-17.66L315.78-17.66Q319.36-17.66 320.58-16.13L320.58-16.13L320.58-16.13Q321.09-15.36 321.09-14.50L321.09-14.50L321.09-14.50Q321.09-13.63 320.51-12.61L320.51-12.61L320.51-12.61Q319.36-10.62 316.19-9.12L316.19-9.12L316.19-9.12Q313.02-7.62 310.21-7.62L310.21-7.62L310.21-7.62Q309.12-7.62 309.02-7.81L309.02-7.81L309.02-7.81Q308.93-8 309.18-8.10L309.18-8.10L309.18-8.10Q309.44-8.19 309.89-8.19L309.89-8.19L309.89-8.19Q312.45-8.19 315.90-9.98ZM337.79-9.98L337.79-9.98L337.79-9.98Q341.18-11.84 341.18-13.76L341.18-13.76L341.18-13.76Q341.18-15.68 338.88-15.68L338.88-15.68L338.88-15.68Q337.79-15.68 336.58-15.10L336.58-15.10L336.58-15.10Q333.89-13.89 331.39-10.88L331.39-10.88L331.39-10.88Q328.32-7.17 328.32-3.97L328.32-3.97L328.32-3.97Q328.32-2.75 328.99-1.70L328.99-1.70L328.99-1.70Q329.66-0.64 331.39-0.64L331.39-0.64L331.39-0.64Q334.40-0.64 339.01-3.81L339.01-3.81L339.01-3.81Q343.62-6.98 346.94-10.18L346.94-10.18L346.94-10.18Q347.71-10.94 347.71-10.24L347.71-10.24L347.71-10.24Q347.71-9.79 347.33-9.47L347.33-9.47L347.33-9.47Q344.96-7.30 344.16-6.56L344.16-6.56L344.16-6.56Q343.36-5.82 340.99-3.94L340.99-3.94L340.99-3.94Q338.62-2.05 337.15-1.28L337.15-1.28L337.15-1.28Q332.61 1.09 329.44 1.09L329.44 1.09L329.44 1.09Q326.27 1.09 324.45-0.35L324.45-0.35L324.45-0.35Q322.62-1.79 322.62-4.35L322.62-4.35L322.62-4.35Q322.62-9.79 327.49-13.73L327.49-13.73L327.49-13.73Q332.35-17.66 337.66-17.66L337.66-17.66L337.66-17.66Q341.25-17.66 342.46-16.13L342.46-16.13L342.46-16.13Q342.98-15.36 342.98-14.50L342.98-14.50L342.98-14.50Q342.98-13.63 342.40-12.61L342.40-12.61L342.40-12.61Q341.25-10.62 338.08-9.12L338.08-9.12L338.08-9.12Q334.91-7.62 332.10-7.62L332.10-7.62L332.10-7.62Q331.01-7.62 330.91-7.81L330.91-7.81L330.91-7.81Q330.82-8 331.07-8.10L331.07-8.10L331.07-8.10Q331.33-8.19 331.78-8.19L331.78-8.19L331.78-8.19Q334.34-8.19 337.79-9.98Z" fill="#00d8ff"></path></g></g><style>text {
  font-size: 64px;
  font-family: Arial Black;
  dominant-baseline: central;
  text-anchor: middle;
}</style></svg>