<svg width="492.94" height="129.182" xmlns="http://www.w3.org/2000/svg" viewBox="3.53 10.409 492.94 129.182"
     style="background:0 0" preserveAspectRatio="xMidYMid">
  <defs>
    <filter id="editing-hole" x="-100%" y="-100%" width="300%" height="300%">
      <feFlood flood-color="#222" result="black"/>
      <feMorphology operator="dilate" radius="2" in="SourceGraphic" result="erode"/>
      <feGaussianBlur in="erode" stdDeviation="4" result="blur"/>
      <feOffset in="blur" dx="2" dy="2" result="offset"/>
      <feComposite operator="atop" in="offset" in2="black" result="merge"/>
      <feComposite operator="in" in="merge" in2="SourceGraphic" result="inner-shadow"/>
    </filter>
  </defs>
  <g filter="url(#editing-hole)">
    <path
      class="crits-brand-text"
      d="M99 79.889l1.6.26q3.08 0 9.12-2.72 6.05-2.72 11.11-6.76 5.05-4.03 5.05-7.1 0-1.98-1.95-2.75t-4.25-.77q-7.49 0-16.13 4.29-8.64 4.29-14.91 10.11-8.45 7.87-8.45 14.98 0 3.07 1.53 5.37 1.54 2.31 4.1 3.59 4.8 2.36 10.75 2.36 2.69 0 6.59-.57 6.79-1.22 11.62-3.2 4.83-1.99 9.7-5.95.25-.13.32-.13.32 0 .32.29 0 .28-.26.67-4.8 5.18-13.38 8.48-8.57 3.29-16.06 3.29-9.6 0-14.4-5.63-2.62-3.13-2.62-7.55 0-8.58 9.28-16.96 6.97-6.27 16.76-10.82 9.8-4.54 18.24-4.54 5.19 0 8.07 2.5 1.66 1.53 1.66 3.77 0 3.14-3.17 6.31-3.16 3.16-7.61 5.4t-8.9 3.75q-4.45 1.5-6.21 1.66-1.76.16-2.68.16-.93 0-1.89-.06-3.33-.32-3.33-1.41 0-.32.38-.32zm41.48 8q-2.82 3.26-4.58 5.98-1.76 2.72-1.76 3.84 0 1.12 1.31 1.12t5.38-2.62q4.06-2.62 7.52-5.89.32-.32.57-.25.26.06.26.32 0 .25-.26.57-8.25 7.55-12.6 9.47-1.92.77-2.76.77-3.07 0-4.19-1.02-1.12-1.03-1.12-2.24 0-2.43.96-3.71 3.14-4.42 4.99-7.49.58-.9-.22-1.25-.8-.35-1.98-.35-1.19 0-1.25-.07-4.29 5.76-8.51 9.09-.52.45-.58 0 0-.51.7-1.21 4.48-3.84 7.36-8.13-.57-.39-.57-1.06t.09-1.63q.1-.96 1-2.56 1.53-2.69 3.2-2.69 1.4 0 1.4 1.54 0 2.11-1.98 4.61-.96 1.15-1.79 1.66 2.37-.77 6.91-.77 2.24 0 3.2 1.67.13.25.13.76 0 .52-.83 1.54zm18.43-6.72q-.71-.58-.58-1.66.13-1.09 1.15-2.31 1.03-1.21 2.76-1.21.51 0 1.08.48.58.48.45 1.6-.13 1.12-1.02 2.11-.9.99-2.02 1.28-1.12.29-1.82-.29zm-.83 3.39q-2.63 2.69-4.39 6.82-1.76 4.13-1.76 5.79 0 1.66 1.31 1.66 1.32 0 4.36-1.92t6.94-5.44q.83-.76.83.2 0 .12-.13.25-3.07 2.69-5.18 4.42t-5.02 3.29q-2.92 1.57-4.77 1.57-2.31 0-3.43-1.02-1.12-1.03-1.12-2.24 0-2.31.84-3.65.83-1.34 2.81-3.71-.7.57-2.21 1.92-1.5 1.34-2.08 1.79-.57.45-.57-.26 0-.44 1.02-1.28 1.03-.83 4.45-4.22 3.42-3.39 4.67-4.03 1.25-.64 2.05-.64.8 0 1.18.22.39.23.2.48zm16.76-5.82q1.41-2.11 2.28-3.36.86-1.25 1.37-1.83.51-.57 2.31-.99 1.79-.41 3.45-.41 1.67 0 1.67.35t-2.76 2.97q-2.75 2.63-6.4 6.98 4.36.7 5.7 2.75.51.9.16 1.15-.35.26-.8-.19-1.34-1.34-4.29-1.34-1.28 0-2.88.25-5.18 6.66-6.53 10.88-.44 1.22-.44 2.05 0 2.24 1.85 2.24 1.99 0 5.57-2.75 4.67-3.52 8.13-6.98.64-.7.83-.32.19.39-.32.84-5.5 5.76-9.25 8.48-3.74 2.72-6.88 2.72-4.29 0-4.29-4.55 0-2.17 1.22-5.18l-1.15 1.09q-.51.51-.74.28-.22-.22-.22-.41 0-.19.51-.64 4.67-4.1 6.4-6.21-1.22.45-1.63.06-.42-.38-.58-1.02-.16-.64.64-1.57t2.37-1.34q1.57-.42 2.34-.48.96-1.41 2.36-3.52zm2.56 18.43q-.06-.06-.06-.19t.22-.13q.23 0 .29.26 1.15 2.56 3.78 2.56 3.26 0 5.69-3.2 1.8-2.37 3.17-4.96 1.38-2.6 2.31-4.13.92-1.54 2.88-3.46 1.95-1.92 3.55-2.37-.39-.19-1.28-.19-.9 0-3.36 1.31-2.47 1.32-4.9 3.33-2.43 2.02-5.25 4.58-2.81 2.56-3.39 3.01-.57.44-.7 0-.13-.45.32-.84 1.66-1.4 4.8-4.38 3.13-2.98 4.77-4.35 1.63-1.38 3.68-2.37 2.04-.99 3.07-.99 2.56 0 3.13.89-1.66.71-2.72 3.72-1.05 3-2.36 6.97-1.32 3.97-3.3 6.21 1.66-.64 5.15-2.98 3.49-2.33 6.18-5.08.57-.52.83-.13v.29q0 .16-1.22 1.37-1.21 1.22-2.97 2.72-1.76 1.51-4.39 3.36-5.44 3.84-10.91 3.84t-7.01-4.67zm59.08 2.94q-5.89 1.41-9.54.77-6.59-1.15-8.38-4.61-.64-1.21-.64-2.14 0-.93.12-1.5.39-1.99 2.47-4.23t5.79-4.29l3.33-1.85q1.15-10.63 13.37-18.18 4.8-3.01 8.07-3.01 1.09 0 1.98.32 2.11.77 2.11 2.76 0 3.45-4.67 7.16-2.56 2.12-5.57 3.91l-11.13 6.65v1.89q0 1.44.57 3.81 4.87-2.75 10.63-3.71 2.81-.51 4.93-.51 5.24 0 5.95 3.32.06.45.06.84 0 2.17-2.37 4.54-4.16 4.16-13.95 7.17 3.91 5.31 8.58 7.23 3.13 1.34 4.86 1.34 1.73 0 2.4-.73.67-.74.67-1.54t-.89-1.89q-1.92-2.49-5.63-2.49-.39 0-1.19.09-.8.1-.8-.09-.19-.51.9-.71 1.73-.25 3.2-.25 4.09 0 5.82 2.24.9 1.02.9 2.08 0 1.05-.77 2.14-1.47 2.18-4.74 2.18-2.56 0-5.37-1.22-6.59-2.81-11.07-7.49zm17.92-12.22q0-1.79-3.72-1.79-6.27 0-15.74 3.84 1.34 4.54 4.03 8.45 7.81-2.44 12.74-6.72 2.69-2.31 2.69-3.78zm-30.6 11.26q2.05.84 4.48.84 3.97 0 7.36-.71-3.26-3.77-4.67-7.49-2.17 1.28-2.62 1.76-.45.48-.51.45-.07-.03 0-.41.19-1.41 2.43-3.27l.13-.06q-.9-3.01-.9-5.76l-1.86 1.15q-3.52 2.43-5.34 5.06-1.82 2.62-1.82 4.92 0 2.31 3.32 3.52zm22.82-27.45q2.91-2.56 2.91-4.64 0-2.08-2.17-2.08-2.5 0-5.96 2.37-6.59 4.48-7.36 12.54 1.16-.7 3.91-2.24 5.76-3.39 8.67-5.95zm51.36 8.19l1.6.26q3.07 0 9.12-2.72 6.05-2.72 11.1-6.76 5.06-4.03 5.06-7.1 0-1.98-1.95-2.75t-4.26-.77q-7.49 0-16.13 4.29-8.64 4.29-14.91 10.11-8.45 7.87-8.45 14.98 0 3.07 1.54 5.37 1.54 2.31 4.1 3.59 4.8 2.36 10.75 2.36 2.69 0 6.59-.57 6.78-1.22 11.62-3.2 4.83-1.99 9.69-5.95.26-.13.32-.13.32 0 .32.29 0 .28-.25.67-4.8 5.18-13.38 8.48-8.58 3.29-16.06 3.29-9.6 0-14.4-5.63-2.63-3.13-2.63-7.55 0-8.58 9.28-16.96 6.98-6.27 16.77-10.82 9.79-4.54 18.24-4.54 5.18 0 8.06 2.5 1.67 1.53 1.67 3.77 0 3.14-3.17 6.31-3.17 3.16-7.62 5.4-4.44 2.24-8.89 3.75-4.45 1.5-6.21 1.66-1.76.16-2.69.16-.93 0-1.89-.06-3.32-.32-3.32-1.41 0-.32.38-.32zm35.14 19.71q-4.29 2.18-7.49 2.18-2.69 0-3.65-1.79-.51-.9-.51-2.05 0-2.63 1.21-5.12-.83.83-1.6 1.34-.64.58-.64-.13 0-.44 1.12-1.4t3.43-3.24q2.3-2.27 3.65-3.42 3.9-3.26 8.25-3.26 1.6 0 3.27.83 2.43 1.15 2.43 4.22 0 3.71-3.71 7.62-1.48 1.66-4.1 3.33 5.25-.84 11.14-6.34.32-.26.57-.22.26.03.26.28 0 .26-.26.52-7.04 6.65-13.12 6.65h-.25zm6.2-6.72q1.6-2.43 1.6-4.13 0-1.69-1.47-2.59-.83-.7-1.92-.7-3.9 0-7.2 3.07-3.29 3.07-4.38 6.53-.45 1.21-.45 2.53 0 1.31.99 1.85.99.55 2.21.55t3.52-1.22q-.13 0-.38-.13-.77-.38-.77-1.02 0-2.24 2.49-4.55 1.8-1.6 3.65-1.6 1.86 0 2.11 1.41zm36.42-18.43q0 .26-.22.26-.23 0-.29-.32-.39-1.48-1.47-2.28-1.09-.8-1.89-.83-.8-.03-1.44-.03-2.31 0-4.29 1.28-3.78 2.43-8.77 9.22 3.52.32 4.74 1.28 2.37 1.79 1.92 2.62-.13.32-1.15-.29-1.03-.61-3.14-.61-2.11 0-4.93.77-4.41 6.47-6.53 13.25-.89 2.94-.89 4.86 0 1.92.83 2.88.26.26.06.32-.19.07-.25.07-.07 0-.13-.07-2.37-1.92-2.37-6.08t3.91-13.18q-.32.13-.48 0-.16-.13-.39-.58-.22-.44-.35-1.12-.13-.67.03-1.34t.93-1.38q.9-.76 3.01-1.21 4.73-8.77 9.15-11.78 2.94-1.98 6.08-1.98t5.38 1.53q2.94 2.05 2.94 4.74zm16.06 0q0 .26-.22.26t-.29-.32q-.38-1.48-1.47-2.28-1.09-.8-1.89-.83-.8-.03-1.44-.03-2.3 0-4.29 1.28-3.77 2.43-8.76 9.22 3.52.32 4.73 1.28 2.37 1.79 1.92 2.62-.13.32-1.15-.29t-3.14-.61q-2.11 0-4.92.77-4.42 6.47-6.53 13.25-.9 2.94-.9 4.86 0 1.92.83 2.88.26.26.07.32-.19.07-.26.07-.06 0-.13-.07-2.36-1.92-2.36-6.08t3.9-13.18q-.32.13-.48 0-.16-.13-.38-.58-.23-.44-.36-1.12-.12-.67.04-1.34t.92-1.38q.9-.76 3.01-1.21 4.74-8.77 9.15-11.78 2.95-1.98 6.08-1.98 3.14 0 5.38 1.53 2.94 2.05 2.94 4.74zm.96 16.26q3.4-1.86 3.4-3.78 0-1.92-2.31-1.92-1.09 0-2.3.58-2.69 1.21-5.19 4.22-3.07 3.71-3.07 6.91 0 1.22.67 2.27.68 1.06 2.4 1.06 3.01 0 7.62-3.17t7.94-6.37q.76-.76.76-.06 0 .45-.38.77-2.37 2.17-3.17 2.91-.8.74-3.17 2.62-2.36 1.89-3.84 2.66-4.54 2.37-7.71 2.37t-4.99-1.44q-1.82-1.44-1.82-4 0-5.44 4.86-9.38 4.86-3.93 10.18-3.93 3.58 0 4.8 1.53.51.77.51 1.63 0 .87-.58 1.89-1.15 1.99-4.32 3.49-3.17 1.5-5.98 1.5-1.09 0-1.19-.19-.09-.19.16-.29.26-.09.71-.09 2.56 0 6.01-1.79zm21.89 0q3.39-1.86 3.39-3.78 0-1.92-2.3-1.92-1.09 0-2.3.58-2.69 1.21-5.19 4.22-3.07 3.71-3.07 6.91 0 1.22.67 2.27.67 1.06 2.4 1.06 3.01 0 7.62-3.17t7.93-6.37q.77-.76.77-.06 0 .45-.38.77-2.37 2.17-3.17 2.91-.8.74-3.17 2.62-2.37 1.89-3.84 2.66-4.54 2.37-7.71 2.37t-4.99-1.44q-1.83-1.44-1.83-4 0-5.44 4.87-9.38 4.86-3.93 10.17-3.93 3.59 0 4.8 1.53.52.77.52 1.63 0 .87-.58 1.89-1.15 1.99-4.32 3.49-3.17 1.5-5.98 1.5-1.09 0-1.19-.19-.09-.19.16-.29.26-.09.71-.09 2.56 0 6.01-1.79z"
      fill="#00d8ff"/>
  </g>
  <style>
    .crits-brand-text{
      animation: text-focus-in;
      animation-duration: 3s;
    }
  </style>
</svg>
